name C:\Users\tom_v\MusculoskeletalSpecialization\ResultsSprinting\Case_2\motion.mot
datacolumns 32
datarows 7
range 0.00000000 0.02337695
endheader 
time	pelvis_tilt	pelvis_list	pelvis_rotation	pelvis_tx	pelvis_ty	pelvis_tz	hip_flexion_r	hip_adduction_r	hip_rotation_r	knee_angle_r	ankle_angle_r	subtalar_angle_r	mtp_angle_r	hip_flexion_l	hip_adduction_l	hip_rotation_l	knee_angle_l	ankle_angle_l	subtalar_angle_l	mtp_angle_l	lumbar_extension	lumbar_bending	lumbar_rotation	arm_flex_r	arm_add_r	arm_rot_r	elbow_flex_r	arm_flex_l	arm_add_l	arm_rot_l	elbow_flex_l	
          0.00000000	         -7.20679692	         -3.35383968	          5.60566748	          0.00000000	          0.99017708	         -0.00821681	         27.22010530	          4.28638207	         -9.11127682	         -8.87859415	          1.36564857	          1.01335407	         -1.23097804	         14.97339972	         -7.14018782	         -3.90679871	        -55.36223188	        -11.41750292	          5.24939487	         -0.37307733	        -12.72878158	          7.23598101	        -11.60429590	         -0.69040459	        -14.64496485	         -6.87371238	         19.92098795	          2.81185480	        -16.59655257	        -11.66186328	         12.98947829	
          0.00389616	         -7.57816345	         -2.79486317	          4.06105263	          0.03899110	          0.98769637	         -0.00833274	         25.57306270	          4.22438242	         -8.40084066	         -7.74764415	         -1.78087097	          0.30446409	          1.17178357	         16.77150926	         -6.52507296	         -4.75852997	        -56.54237732	         -9.89866054	          6.01725525	         -2.14079587	        -12.17934698	          6.78936607	        -11.07017105	          7.31941693	        -15.48840485	         -9.49684358	         12.63334412	          1.52795924	        -13.42497993	        -11.87646657	          6.70165818	
          0.00779232	         -8.01452035	         -2.12899934	          2.46499300	          0.07805135	          0.98449638	         -0.00853304	         24.00091909	          3.96038244	         -7.65776919	         -6.75678270	         -4.09322491	         -0.00434446	          2.91003168	         18.71440261	         -5.85175428	         -5.61827343	        -57.75267168	         -9.21489646	          6.45493005	         -4.04378591	        -11.54646585	          6.27422564	        -10.45432893	         14.12044900	        -16.64680110	        -11.89410869	          8.69174402	         -0.46047747	        -10.25455124	        -12.65631757	          2.12961455	
          0.01168847	         -8.52491146	         -1.41591688	          0.80427729	          0.11719446	          0.98068111	         -0.00864158	         22.59744007	          3.62339949	         -7.07080405	         -6.34853273	         -7.56170631	         -0.62124501	          4.37386694	         20.80406839	         -5.24311179	         -6.51415418	        -58.99042015	         -8.90440704	          7.03816063	         -1.18540461	        -10.82777182	          5.73942300	         -9.70742736	         19.41503155	        -17.99794185	        -13.15487829	          8.66184442	         -3.44507980	         -7.13138229	        -13.19962559	          0.05942013	
          0.01558463	         -9.06545455	         -0.93342787	         -1.05405982	          0.15621475	          0.97673305	         -0.00815997	         21.61088090	          3.76026116	         -4.70278569	         -8.07844113	         -2.82603188	         -0.67871353	          6.34370070	         22.98161843	         -5.13800111	         -7.54496410	        -60.29503236	         -7.54061975	          8.13700422	          1.12496544	        -10.14072224	          5.45672425	         -8.62929288	         23.08249661	        -19.50390691	        -12.54265662	         12.79538459	         -7.58791177	         -4.05287159	        -12.58122385	          1.07331291	
          0.01948079	         -9.43231346	         -0.84713336	         -3.00184136	          0.19511334	          0.97340683	         -0.00720311	         20.37108550	          4.48024083	         -1.04280772	         -9.59985117	          0.64266255	         -2.57939142	          8.59026952	         25.02929927	         -5.66828594	         -8.51878019	        -61.62918596	         -6.38453215	          9.02866209	          2.56388013	         -9.76923677	          5.60762222	         -7.29616012	         25.23060731	        -21.43960024	         -9.56920125	         20.86823046	        -12.99746738	         -1.13595040	        -10.51486074	          5.65242327	
          0.02337695	         -9.61480059	         -1.01951916	         -4.93138834	          0.23381397	          0.97080934	         -0.00601502	         18.82830632	          5.45594736	          2.68696456	        -10.86077836	          2.64467207	         -5.23414264	         11.14732490	         26.92377161	         -6.55500693	         -9.28318242	        -62.94240542	         -5.70146376	          9.55090191	          3.87080361	         -9.74309034	          6.01464866	         -5.83508966	         26.47032627	        -24.25419178	         -4.56065180	         31.57825929	        -19.54821262	          1.30782438	         -7.05455670	         13.56334788	
